<svg width="174" height="211" viewBox="0 0 174 211" fill="none" xmlns="http://www.w3.org/2000/svg">
<path d="M154.619 174.52H157.699V178.7H160.031V181.098H157.699V188.358H154.619V181.098H153.123V178.7H154.619V174.52Z" fill="white"/>
<path d="M143.448 178.744L143.69 180.46L143.646 180.306C143.984 179.705 144.46 179.221 145.076 178.854C145.692 178.473 146.448 178.282 147.342 178.282C148.252 178.282 149.007 178.553 149.608 179.096C150.224 179.624 150.54 180.313 150.554 181.164V188.358H147.474V182.308C147.46 181.883 147.342 181.545 147.122 181.296C146.917 181.032 146.565 180.9 146.066 180.9C145.348 180.9 144.776 181.237 144.35 181.912C143.94 182.572 143.734 183.415 143.734 184.442V188.358H140.654V178.744H143.448Z" fill="white"/>
<path d="M133.224 188.622C132.051 188.622 131.053 188.402 130.232 187.962C129.425 187.522 128.809 186.913 128.384 186.136C127.959 185.359 127.746 184.464 127.746 183.452C127.746 182.484 127.995 181.611 128.494 180.834C128.993 180.057 129.66 179.441 130.496 178.986C131.332 178.517 132.263 178.282 133.29 178.282C134.669 178.282 135.798 178.685 136.678 179.492C137.573 180.284 138.152 181.435 138.416 182.946L130.936 185.322L130.254 183.65L135.666 181.824L135.028 182.11C134.911 181.729 134.698 181.399 134.39 181.12C134.097 180.827 133.649 180.68 133.048 180.68C132.359 180.68 131.809 180.915 131.398 181.384C130.987 181.853 130.782 182.484 130.782 183.276C130.782 184.171 131.024 184.853 131.508 185.322C131.992 185.777 132.586 186.004 133.29 186.004C133.627 186.004 133.95 185.945 134.258 185.828C134.581 185.711 134.896 185.557 135.204 185.366L136.568 187.654C136.055 187.947 135.497 188.182 134.896 188.358C134.309 188.534 133.752 188.622 133.224 188.622Z" fill="white"/>
<path d="M118.681 188.622C117.787 188.622 116.987 188.417 116.283 188.006C115.579 187.581 115.022 186.972 114.611 186.18C114.215 185.388 114.017 184.449 114.017 183.364C114.017 182.279 114.237 181.355 114.677 180.592C115.117 179.829 115.719 179.25 116.481 178.854C117.244 178.458 118.109 178.26 119.077 178.26C119.693 178.26 120.28 178.355 120.837 178.546C121.409 178.737 121.886 179.03 122.267 179.426V180.394V171H125.325V188.358H122.245V186.488L122.487 187.148C121.989 187.559 121.431 187.911 120.815 188.204C120.199 188.483 119.488 188.622 118.681 188.622ZM119.693 186.026C120.309 186.026 120.823 185.909 121.233 185.674C121.644 185.425 121.981 185.058 122.245 184.574V182.22C122.069 181.751 121.754 181.377 121.299 181.098C120.845 180.819 120.309 180.68 119.693 180.68C119.239 180.68 118.813 180.797 118.417 181.032C118.036 181.252 117.728 181.56 117.493 181.956C117.259 182.352 117.141 182.807 117.141 183.32C117.141 183.833 117.259 184.295 117.493 184.706C117.728 185.117 118.036 185.439 118.417 185.674C118.813 185.909 119.239 186.026 119.693 186.026Z" fill="white"/>
<path d="M104.497 178.744L104.739 180.46L104.695 180.306C105.032 179.705 105.509 179.221 106.125 178.854C106.741 178.473 107.496 178.282 108.391 178.282C109.3 178.282 110.056 178.553 110.657 179.096C111.273 179.624 111.588 180.313 111.603 181.164V188.358H108.523V182.308C108.508 181.883 108.391 181.545 108.171 181.296C107.966 181.032 107.614 180.9 107.115 180.9C106.396 180.9 105.824 181.237 105.399 181.912C104.988 182.572 104.783 183.415 104.783 184.442V188.358H101.703V178.744H104.497Z" fill="white"/>
<path d="M94.2728 188.622C93.0995 188.622 92.1021 188.402 91.2808 187.962C90.4741 187.522 89.8581 186.913 89.4328 186.136C89.0075 185.359 88.7948 184.464 88.7948 183.452C88.7948 182.484 89.0441 181.611 89.5428 180.834C90.0415 180.057 90.7088 179.441 91.5448 178.986C92.3808 178.517 93.3121 178.282 94.3388 178.282C95.7175 178.282 96.8468 178.685 97.7268 179.492C98.6215 180.284 99.2008 181.435 99.4648 182.946L91.9848 185.322L91.3028 183.65L96.7148 181.824L96.0768 182.11C95.9595 181.729 95.7468 181.399 95.4388 181.12C95.1455 180.827 94.6981 180.68 94.0968 180.68C93.4075 180.68 92.8575 180.915 92.4468 181.384C92.0361 181.853 91.8308 182.484 91.8308 183.276C91.8308 184.171 92.0728 184.853 92.5568 185.322C93.0408 185.777 93.6348 186.004 94.3388 186.004C94.6761 186.004 94.9988 185.945 95.3068 185.828C95.6295 185.711 95.9448 185.557 96.2528 185.366L97.6168 187.654C97.1035 187.947 96.5461 188.182 95.9448 188.358C95.3581 188.534 94.8008 188.622 94.2728 188.622Z" fill="white"/>
<path d="M82.028 188.362C81.456 188.362 80.8913 188.259 80.334 188.054C79.7913 187.834 79.3367 187.526 78.97 187.13L79.058 186.228V192.718H76V178.264H78.64L79.08 180.134L78.838 179.474C79.3367 179.049 79.894 178.697 80.51 178.418C81.126 178.139 81.8373 178 82.644 178C83.5387 178 84.338 178.213 85.042 178.638C85.746 179.049 86.296 179.65 86.692 180.442C87.1027 181.219 87.308 182.158 87.308 183.258C87.308 184.343 87.0807 185.267 86.626 186.03C86.1713 186.793 85.548 187.372 84.756 187.768C83.964 188.164 83.0547 188.362 82.028 188.362ZM81.412 185.942C81.9107 185.942 82.3653 185.832 82.776 185.612C83.2013 185.392 83.5387 185.084 83.788 184.688C84.052 184.277 84.184 183.815 84.184 183.302C84.184 182.759 84.0667 182.29 83.832 181.894C83.612 181.483 83.304 181.168 82.908 180.948C82.5267 180.713 82.1013 180.596 81.632 180.596C81.016 180.596 80.5027 180.721 80.092 180.97C79.6813 181.205 79.344 181.564 79.08 182.048V184.402C79.2413 184.871 79.5273 185.245 79.938 185.524C80.3633 185.803 80.8547 185.942 81.412 185.942Z" fill="white"/>
<path d="M68.3841 188.622C67.2108 188.622 66.2135 188.402 65.3921 187.962C64.5855 187.522 63.9695 186.913 63.5441 186.136C63.1188 185.359 62.9061 184.464 62.9061 183.452C62.9061 182.484 63.1555 181.611 63.6541 180.834C64.1528 180.057 64.8201 179.441 65.6561 178.986C66.4921 178.517 67.4235 178.282 68.4501 178.282C69.8288 178.282 70.9581 178.685 71.8381 179.492C72.7328 180.284 73.3121 181.435 73.5761 182.946L66.0961 185.322L65.4141 183.65L70.8261 181.824L70.1881 182.11C70.0708 181.729 69.8581 181.399 69.5501 181.12C69.2568 180.827 68.8095 180.68 68.2081 180.68C67.5188 180.68 66.9688 180.915 66.5581 181.384C66.1475 181.853 65.9421 182.484 65.9421 183.276C65.9421 184.171 66.1841 184.853 66.6681 185.322C67.1521 185.777 67.7461 186.004 68.4501 186.004C68.7875 186.004 69.1101 185.945 69.4181 185.828C69.7408 185.711 70.0561 185.557 70.3641 185.366L71.7281 187.654C71.2148 187.947 70.6575 188.182 70.0561 188.358C69.4695 188.534 68.9121 188.622 68.3841 188.622Z" fill="white"/>
<path d="M53.8416 188.622C52.9469 188.622 52.1476 188.417 51.4436 188.006C50.7396 187.581 50.1823 186.972 49.7716 186.18C49.3756 185.388 49.1776 184.449 49.1776 183.364C49.1776 182.279 49.3976 181.355 49.8376 180.592C50.2776 179.829 50.879 179.25 51.6416 178.854C52.4043 178.458 53.2696 178.26 54.2376 178.26C54.8536 178.26 55.4403 178.355 55.9976 178.546C56.5696 178.737 57.0463 179.03 57.4276 179.426V180.394V171H60.4856V188.358H57.4056V186.488L57.6476 187.148C57.1489 187.559 56.5916 187.911 55.9756 188.204C55.3596 188.483 54.6483 188.622 53.8416 188.622ZM54.8536 186.026C55.4696 186.026 55.9829 185.909 56.3936 185.674C56.8043 185.425 57.1416 185.058 57.4056 184.574V182.22C57.2296 181.751 56.9143 181.377 56.4596 181.098C56.005 180.819 55.4696 180.68 54.8536 180.68C54.3989 180.68 53.9736 180.797 53.5776 181.032C53.1963 181.252 52.8883 181.56 52.6536 181.956C52.4189 182.352 52.3016 182.807 52.3016 183.32C52.3016 183.833 52.4189 184.295 52.6536 184.706C52.8883 185.117 53.1963 185.439 53.5776 185.674C53.9736 185.909 54.3989 186.026 54.8536 186.026Z" fill="white"/>
<path d="M39.6572 178.744L39.8992 180.46L39.8552 180.306C40.1925 179.705 40.6692 179.221 41.2852 178.854C41.9012 178.473 42.6565 178.282 43.5512 178.282C44.4605 178.282 45.2158 178.553 45.8172 179.096C46.4332 179.624 46.7485 180.313 46.7632 181.164V188.358H43.6832V182.308C43.6685 181.883 43.5512 181.545 43.3312 181.296C43.1258 181.032 42.7738 180.9 42.2752 180.9C41.5565 180.9 40.9845 181.237 40.5592 181.912C40.1485 182.572 39.9432 183.415 39.9432 184.442V188.358H36.8632V178.744H39.6572Z" fill="white"/>
<path d="M30 172.166H33.19V188.358H30V172.166Z" fill="white"/>
<path d="M121.058 195.919L125.032 205.715L123.48 205.401L127.084 195.919H130.263L124.053 210.151L117.842 195.919H121.058Z" fill="#CC2229"/>
<path d="M138.217 195.919C139.905 195.919 141.199 196.338 142.098 197.176C142.998 198.001 143.447 199.11 143.447 200.503C143.447 201.057 143.361 201.618 143.189 202.185C143.028 202.739 142.763 203.244 142.394 203.7C142.036 204.156 141.55 204.526 140.934 204.809C140.33 205.08 139.584 205.216 138.697 205.216H136.775V209.522H134.095L134.095 195.919H138.217ZM138.679 202.61C139.085 202.61 139.424 202.542 139.695 202.406C139.966 202.258 140.176 202.08 140.324 201.87C140.484 201.649 140.595 201.421 140.656 201.186C140.73 200.952 140.767 200.749 140.767 200.577C140.767 200.441 140.743 200.262 140.693 200.041C140.656 199.806 140.57 199.572 140.435 199.338C140.299 199.104 140.09 198.907 139.806 198.747C139.535 198.587 139.165 198.506 138.697 198.506H136.775V202.61H138.679Z" fill="#CC2229"/>
<path d="M159.504 210.077L149.191 200.761L149.986 201.205L150.041 209.522H147.324L147.324 195.383H147.435L157.527 204.661L156.935 204.402L156.88 195.919L159.578 195.919L159.578 210.077H159.504Z" fill="#CC2229"/>
<circle cx="95.0114" cy="78.7237" r="78.7237" fill="#CC2229"/>
<path d="M162.876 75.4292C162.8 75.2762 162.415 74.8911 162.299 74.4691C162.183 74.0471 161.914 73.8149 161.415 73.7384C160.914 73.662 160.954 73.4694 160.954 73.1239C160.954 72.7783 160.645 72.6227 160.183 72.0846C159.722 71.5465 157.224 71.6995 156.723 71.6995C156.222 71.6995 155.414 71.3144 154.876 71.1614C154.338 71.0084 154.723 70.0088 154.531 69.7397C154.338 69.4707 154.069 68.9326 154.338 68.624C154.607 68.3154 153.837 67.9329 153.647 67.5082C153.455 67.0862 153.916 67.2788 154.378 66.6615C154.839 66.047 154.494 65.9309 154.916 65.3532C155.338 64.7756 154.876 64.7387 154.686 64.2006C154.494 63.6625 154.61 63.1613 154.301 62.8554C153.993 62.5468 153.916 62.5098 153.571 62.3542C153.225 62.2012 152.993 61.584 153.109 61.125C153.225 60.6635 152.186 60.6239 151.608 60.7399C151.031 60.856 151.031 60.1623 150.609 60.0858C150.187 60.0093 151.031 59.5846 151.031 59.4317C151.031 59.2787 150.569 59.0861 150.071 59.0096C149.569 58.9331 149.456 58.432 149.187 57.8939C148.918 57.3558 148.841 57.7409 148.572 57.6961C148.303 57.6512 148.38 57.3954 148.419 57.0868C148.459 56.7781 148.111 56.7017 147.805 56.7017C147.499 56.7017 147.151 56.5856 146.765 56.6621C146.38 56.7386 146.264 57.7383 145.995 58.1234C145.726 58.5085 145.573 58.0838 145.304 57.9308C145.035 57.7778 144.265 57.6222 143.766 57.6934C143.265 57.7646 142.382 57.3532 141.883 57.5088C141.382 57.6618 141.269 58.3159 141.036 58.1999C140.804 58.0838 139.997 57.6934 139.997 57.6934C139.9 57.6328 139.343 57.4297 139.074 57.4297C138.805 57.4297 138.343 58.5058 137.958 58.7379C137.573 58.9674 136.457 59.6216 135.766 60.1992C135.075 60.7769 134.537 60.6608 134.152 60.6212C133.767 60.5817 133.268 61.3914 132.73 61.8504C132.192 62.312 131.501 62.0799 131.04 62.1195C130.578 62.159 129.655 63.0031 129.193 63.222C128.732 63.4409 128.655 63.1561 128.539 62.9635C128.423 62.771 128.078 62.8105 127.539 62.8105C127.001 62.8105 126.566 62.4914 126.028 62.4122C125.49 62.3357 124.799 61.7977 124.337 61.4389C123.876 61.0802 122.8 61.824 122.209 61.7475C121.618 61.671 120.183 62.0298 119.595 62.4914C119.004 62.953 118.545 62.6707 118.236 62.5679C117.928 62.465 117.492 63.1323 117.031 63.2088C116.569 63.2853 116.261 63.0295 115.62 63.0558C114.979 63.0822 114.185 62.7235 113.491 62.6707C112.8 62.6206 112.671 62.465 112.465 62.159C112.259 61.8504 111.901 61.4917 111.695 61.3888C111.489 61.2859 110.901 61.671 110.745 61.8082C110.592 61.9454 110.257 62.1063 109.516 61.8082C108.775 61.5101 107.467 61.1567 106.926 60.798C106.388 60.4392 106.029 60.2071 105.541 59.7482C105.053 59.2866 103.901 59.2602 103.465 59.4396C103.03 59.6189 102.798 59.9012 102.236 60.0541C101.672 60.2071 101.466 59.5424 100.698 58.9516C99.9282 58.3608 99.9545 57.849 100.084 57.1052C100.213 56.3614 99.4428 55.8761 99.0577 55.5938C98.6726 55.3116 97.1876 56.3113 96.726 56.3878C96.2644 56.4643 95.7263 56.2348 95.2647 55.9763C94.8031 55.7204 94.0593 55.5912 93.8035 55.2588C93.5476 54.9265 92.9831 54.4121 92.6851 54.209C92.387 54.0033 92.5216 53.8239 92.6508 53.3623C92.78 52.9008 92.5215 52.6713 92.3949 52.6607C92.2683 52.6502 92.242 52.1569 91.8832 52.0804C91.5245 52.0039 91.1658 52.9008 90.7042 53.0801C90.2426 53.2595 88.3962 53.3096 87.6524 53.2595C86.9086 53.2094 84.9092 52.9772 84.4476 52.9509C83.986 52.9245 81.4486 52.7979 80.499 52.6686C79.5494 52.5394 77.6292 53.7184 77.1913 53.8477C76.7561 53.9769 75.0126 54.4121 74.4745 54.7181C73.9364 55.0267 72.9104 55.5384 72.4488 55.7178C71.9872 55.8972 71.8342 56.4616 71.4227 56.6911C71.0139 56.9206 69.8586 57.4613 69.0383 57.6908C68.2179 57.9203 68.2179 58.4847 67.5506 58.8962C66.8833 59.305 66.2951 59.5372 66.063 59.7429C65.8335 59.9486 65.3719 61.1778 65.0369 61.3334C64.7046 61.4864 63.1404 61.8715 62.6023 61.795C62.0642 61.7185 61.0909 61.5392 60.6293 61.4627C60.1677 61.3862 59.2182 60.9747 59.0388 60.8481C58.8594 60.7188 58.1684 60.5922 57.7569 60.5659C57.3481 60.5395 57.4747 61.0011 57.2689 61.1831C57.0632 61.3651 56.4987 61.1541 56.1163 61.1831C55.7312 61.2095 54.7315 61.0037 53.9876 60.9008C53.2438 60.798 52.5264 60.7215 52.1175 60.5922C51.7061 60.463 50.9886 60.3364 50.7327 60.3364C50.4769 60.3364 49.6566 60.2335 49.4508 60.2071C49.2451 60.1808 47.9632 60.0541 47.7601 59.8748C47.5543 59.6954 45.6315 58.978 45.4284 58.8487C45.2226 58.7195 42.8645 57.2846 42.6588 57.0788C42.4531 56.8731 42.0442 56.0528 41.791 55.6941C41.5378 55.3353 41.4296 54.3357 41.8147 53.7976C42.1998 53.2595 41.6354 53.0036 41.6354 53.0036L40.9944 52.9535C40.8889 52.943 40.7386 52.8243 40.5064 52.8005C40.277 52.7741 40.277 52.8506 40.3772 53.1329C40.4801 53.4151 40.2242 53.2094 39.9684 53.2859C39.7125 53.3623 39.789 53.183 39.5068 53.0801C39.2245 52.9772 39.0188 53.1302 38.8922 53.0801C38.7629 53.03 38.61 53.1302 38.457 53.3623C38.304 53.5918 38.2776 53.671 37.969 53.6182C37.6604 53.5681 37.7131 53.489 37.5338 53.336C37.3544 53.183 37.0221 52.5921 36.6871 52.3363C36.3547 52.0804 36.5077 52.0039 36.302 51.7718C36.0962 51.5423 36.2255 51.7982 35.9169 51.8483C35.6083 51.8984 35.9169 52.1042 35.4817 52.0752C35.2364 52.0593 35.0728 52.0541 34.8407 52.0752C34.6086 52.0963 34.5321 52.0752 34.5321 52.0752C34.5321 52.0752 34.3026 52.1569 34.1998 52.3627C34.0969 52.5684 34.1998 52.5156 34.1998 52.7478C34.1998 52.9799 34.0705 52.8506 33.5852 52.9271C33.3451 52.9641 33.4322 53.0801 33.2766 53.0564C33.1236 53.03 33.2264 52.9799 33.0972 52.9034C32.968 52.8269 32.9442 52.9799 32.4562 53.1592C32.269 53.2278 32.327 53.0564 32.174 52.9535C32.021 52.8506 31.9182 52.8506 31.6623 52.8506C31.4064 52.8506 31.3036 52.9008 31.0213 53.4415C30.7391 53.9796 31.1506 53.8002 31.1506 54.0059C31.1506 54.2117 31.1506 54.2618 30.9211 54.4675C30.6916 54.6733 30.7154 54.6205 30.4331 54.4939C30.1509 54.3647 29.7421 54.4939 29.5864 54.7234C29.4335 54.9529 29.3807 55.338 29.6128 55.4408C29.8423 55.5437 29.8423 55.6967 30.0217 55.8259C30.201 55.9552 30.1746 55.9288 30.7919 56.0554C31.4091 56.182 31.1005 56.1583 31.2271 56.2849C31.3563 56.4141 31.4829 56.823 31.4829 56.823C31.4829 56.823 31.5594 57.5668 31.5594 57.8227C31.5594 58.0785 31.6359 58.5137 31.6359 58.9252C31.6359 59.3367 31.5331 59.131 31.4064 59.1811C31.2772 59.2312 31.2772 59.131 30.6626 59.3341C30.048 59.5398 30.4569 59.5899 30.048 59.7957C29.6392 60.0014 29.5864 59.8985 29.4071 60.0251C29.2277 60.1517 29.2277 60.8956 29.2277 61.1541C29.2277 61.4126 29.2277 61.1541 29.3042 61.4864C29.3807 61.8188 29.4836 61.6921 29.5601 62.0245C29.6366 62.3568 29.4308 62.101 29.3306 62.2039C29.2277 62.3067 29.3807 62.3331 29.5601 62.6153C29.7394 62.8976 29.5337 62.7446 29.3543 62.8976C29.175 63.0506 29.2515 63.1798 29.022 63.1798C28.7925 63.1798 28.869 63.2062 28.7134 63.3855C28.5577 63.5649 28.5076 63.6414 28.5076 63.9236C28.5076 64.2059 28.1225 64.2322 27.8403 64.591C27.5581 64.9497 27.4816 64.8996 27.3523 65.0526C27.2231 65.2055 27.4288 65.3612 27.4763 65.77C27.5238 66.1815 27.6583 66.0522 27.9142 66.0522C28.17 66.0522 28.7081 66.4611 29.2726 66.4373C29.837 66.411 30.3224 66.3345 30.5281 66.3872C30.7338 66.4373 31.1427 66.258 31.3985 66.1815C31.6544 66.105 31.7071 66.105 32.2189 65.8729C32.7306 65.6408 32.4747 65.8228 32.9099 65.9757C33.3451 66.1287 32.8334 66.2052 32.8071 66.3846C32.7807 66.5639 32.6013 66.7961 32.4984 66.8462C32.3956 66.8963 32.0896 67.0519 31.7045 67.2313C31.3194 67.4106 31.5515 67.3341 30.9343 67.59C30.3197 67.8459 30.7286 67.7193 30.3197 68.0015C29.9109 68.2837 30.0111 68.1307 29.5495 68.4103C29.0879 68.6926 29.32 68.5132 28.8584 68.8983C28.3968 69.2834 28.9613 69.0777 29.1908 69.6421C29.4203 70.2066 28.9349 69.8716 28.7292 70.051C28.5235 70.2303 28.5235 70.4097 28.3204 70.7684C28.1146 71.1271 28.1911 71.1535 28.3705 71.4859C28.5498 71.8182 28.4997 71.3329 29.2937 70.8713C30.0876 70.4097 29.5495 70.7684 29.626 70.3332C29.7025 69.898 29.6761 70.2567 29.8819 70.051C30.0876 69.8452 29.8819 70.051 30.1641 69.7687C30.4463 69.4865 30.4463 69.5894 30.5729 69.3573C30.7022 69.1278 30.8024 69.075 31.264 68.8192C31.7256 68.5633 31.4697 68.8192 31.5964 68.8455C31.7256 68.8719 31.57 68.9748 31.3906 69.1278C31.2113 69.2808 31.3141 69.1779 31.082 69.4364C30.8525 69.6922 30.7233 69.8215 30.6204 69.9244C30.5175 70.0272 29.9795 70.6946 29.9293 70.8212C29.8792 70.9504 29.6207 71.2696 29.4677 71.4226C29.3148 71.5755 29.2752 71.652 28.9297 71.8446C28.5841 72.0371 28.5446 71.805 28.4681 72.1532C28.3916 72.4987 28.1225 72.9999 28.1225 72.9999L28.2386 74.2291V74.8832C28.2386 74.8832 27.9695 75.5373 27.8535 75.9224C27.7374 76.3075 27.4315 76.5001 27.4684 76.9617C27.5053 77.4233 27.6979 77.0382 28.2386 77.0777C28.7767 77.1173 28.4681 77.0013 28.8162 76.9617C29.1618 76.9221 29.3543 76.6926 30.238 76.5766C31.1216 76.4605 30.8156 76.4236 31.4671 76.3471C32.1213 76.2706 33.0444 76.0385 33.4665 76.1546C33.8885 76.2706 33.8885 76.7322 33.8885 76.7322C33.8885 76.7322 33.1974 77.3099 33.0418 77.4233C32.8888 77.5393 32.2347 77.8849 31.9261 78.423C31.6175 78.9611 32.1186 79.0006 32.1186 79.0006C32.1186 79.0006 32.9258 79.6548 33.1579 80.1533C33.3873 80.6544 33.3109 80.3828 33.3109 80.6544C33.3109 80.9261 33.3109 80.9631 33.1579 81.153C33.0049 81.3429 32.9653 81.3086 33.0049 81.5407C33.0444 81.7702 33.2739 82.0788 33.2739 82.0788C33.2739 82.0788 33.6195 81.9627 33.965 81.9258C34.3105 81.8862 34.3501 82.0023 34.4266 82.1553C34.5031 82.3083 34.0415 82.7329 34.0046 83.002C33.965 83.271 33.8885 83.4636 33.696 83.6166C33.5034 83.7696 33.2739 83.6561 32.8493 83.6561C32.4246 83.6561 32.5406 83.8856 32.4642 84.1573C32.3877 84.4263 32.3877 84.5793 32.3877 84.5793L32.8097 84.8879C32.8097 84.8879 32.9627 85.157 33.1948 85.3495C33.4243 85.5421 33.2344 85.6186 33.2713 86.0037C33.3109 86.3888 33.7724 86.1567 34.1549 86.1197C34.54 86.0802 34.5769 86.1593 34.962 86.2727C35.3471 86.3888 35.2311 86.6182 35.0781 86.7343C34.9251 86.8504 34.7695 86.8873 34.54 86.8504C34.3105 86.8108 34.118 86.8504 33.7329 86.9269C33.3478 87.0033 33.0022 87.0033 32.7332 86.9269C32.4642 86.8504 32.4246 87.0429 32.232 87.1959C32.0395 87.3489 31.9234 87.2355 31.6544 87.1194C31.3853 87.0033 31.6544 86.7343 31.6544 86.3492C31.6544 85.9641 31.5383 85.9641 31.3853 85.6951C31.2324 85.426 31.0767 85.157 31.0767 85.157L30.4991 84.5028C30.4991 84.5028 30.1535 84.2338 29.9214 84.2733C29.692 84.3129 29.9214 84.7349 29.9214 85.0435C29.9214 85.3522 29.8054 85.5816 29.8449 85.7742C29.8845 85.9667 30.1535 86.0828 30.383 86.3123C30.6125 86.5418 30.6916 86.5418 30.5756 86.6209C30.4595 86.6974 30.4226 86.8899 30.4226 86.8899C30.4226 86.8899 30.1931 87.159 29.9214 87.6206C29.6524 88.0822 29.1512 87.7735 29.1512 87.7735C29.1512 87.7735 29.0352 87.8896 29.0747 88.3116C29.1143 88.7337 29.3042 88.5807 29.7289 88.6967C30.1509 88.8128 29.9979 88.7363 30.23 88.9289C30.4595 89.124 30.7681 89.2718 31.0767 89.4274C31.3853 89.5804 31.5383 89.3113 31.5383 89.1583C31.5383 89.0053 31.6913 88.8497 31.7678 88.6572C31.8443 88.4646 32.422 88.3881 32.422 88.3881C32.422 88.3881 32.8835 88.4646 32.96 88.6967C33.0365 88.9262 32.8071 89.3113 33.1895 89.8125C33.5746 90.3136 33.3056 90.005 33.9202 89.9285C34.5347 89.852 33.9202 89.9285 34.7273 90.3136C35.5344 90.6987 35.8035 90.7752 35.8035 90.7752C35.8035 90.7752 36.1121 91.7749 36.1886 92.1205C36.2651 92.466 35.9591 92.582 35.727 92.8907C35.4975 93.1993 35.4184 93.1201 35.2258 93.2362C35.0333 93.3522 34.9963 93.4287 34.6112 93.4657C34.2261 93.5052 34.4582 93.6582 34.5347 93.8112C34.6112 93.9642 34.6877 93.9273 35.1889 94.0802C35.69 94.2332 35.6109 94.2728 35.6663 94.3889C35.7217 94.5049 35.8035 94.89 35.6874 95.4281C35.5713 95.9662 35.9564 96.1587 36.0725 96.3117C36.1886 96.4647 36.3415 96.2722 37.1487 96.0822L37.2647 96.5834L37.1882 97.045C37.1882 97.045 37.5338 96.8155 37.8424 96.892C38.151 96.9685 38.1114 97.2006 38.3436 97.5462C38.573 97.8917 38.42 98.0078 38.2671 98.2372C38.1141 98.4667 37.4204 98.1977 37.0748 98.1607C36.7293 98.1212 36.0751 99.0074 36.0751 99.2369V99.7381C36.0751 100.084 36.4972 100.007 36.8058 99.8541C37.1144 99.7011 36.8823 99.5455 37.4204 99.469C37.9584 99.3925 37.6129 99.6985 38.2671 99.622C38.9212 99.5455 38.8051 99.6616 39.3063 99.6616C39.8075 99.6616 39.9974 99.622 40.5355 99.7011C41.0736 99.7776 41.6116 99.5086 41.6116 99.5086C41.6116 99.5086 42.2658 99.2791 43.6506 99.2C45.0354 99.1235 43.305 99.3925 42.9199 99.8911C42.5348 100.392 42.6905 100.121 42.4188 100.392C42.1497 100.661 41.8807 100.508 41.6486 100.585C41.4191 100.661 41.7646 101.007 41.7646 101.199C41.7646 101.392 41.2635 101.429 40.9575 101.429C40.6515 101.429 39.8813 101.468 39.4567 101.429C39.032 101.389 38.2275 101.658 37.6868 101.851C37.1487 102.043 37.1091 102.196 37.0326 102.389C36.9561 102.581 37.3782 102.581 37.9162 102.505C38.4543 102.429 38.2249 102.621 39.0689 102.545C39.9156 102.468 39.2984 102.236 39.4144 101.967C39.5305 101.698 40.1055 101.774 40.1055 101.774L41.1448 101.698L42.2974 101.582L42.2209 101.698C42.1445 101.814 41.8358 101.967 41.4692 102.236C41.1026 102.505 41.9123 102.851 41.9123 102.851C42.0943 102.951 41.7198 103.08 41.5325 103.312C41.3452 103.542 41.6037 103.428 41.8728 103.389C42.1418 103.349 42.3739 103.12 42.4109 102.774C42.4478 102.429 42.8329 102.236 43.4501 102.12C44.0647 102.004 43.0281 101.658 43.065 101.236C43.1046 100.814 43.4105 101.197 43.9117 101.389C44.4129 101.582 44.4498 101.389 45.1804 101.389C45.9111 101.389 45.5655 102.159 45.8346 102.12C46.1036 102.08 45.9506 102.159 46.6048 102.349C47.2589 102.542 47.0268 102.658 47.2958 102.811C47.5649 102.964 47.6045 102.734 47.6809 102.581C47.7574 102.429 47.8339 102.312 49.1027 102.429C50.3714 102.545 49.1792 102.658 48.9866 103.389C48.7941 104.119 49.2161 103.389 49.4482 103.658C49.6777 103.927 49.3717 104.235 49.3321 104.85C49.2926 105.464 49.4086 105.464 49.6407 105.541C49.8702 105.617 50.3318 106.272 50.3318 106.272L50.9464 106.464C50.9464 106.464 52.1386 106.773 52.7928 106.926C53.4469 107.079 53.2148 106.886 53.4074 107.464C53.5999 108.042 53.5603 107.693 54.0615 107.464C54.5627 107.234 54.3701 107.118 55.1007 106.886C55.8314 106.657 55.9079 106.81 56.5225 106.425C57.137 106.04 56.9841 106.116 57.5986 106.003C58.2132 105.887 57.9072 105.85 58.1763 106.079C58.4453 106.309 58.2528 106.81 58.5983 106.81C58.9439 106.81 58.7909 106.541 59.4054 105.926C60.02 105.312 59.329 105.156 59.598 104.85C59.867 104.541 59.867 104.043 59.6376 103.004C59.4081 101.964 59.9831 101.157 60.4078 100.928C60.8298 100.698 60.9459 100.775 61.9086 100.888C62.8687 101.004 64.8312 100.579 65.9073 101.579C66.9835 102.579 68.9829 103.117 69.79 103.579C70.5971 104.04 71.5968 105.309 72.2114 106.156C72.826 107.002 74.0182 107.464 74.7488 108.078C75.4795 108.693 76.6322 108.078 77.7083 107.962C78.7845 107.846 80.0163 107.461 81.591 107.348C83.1683 107.232 82.2056 107.271 82.5907 107.039C82.9758 106.81 83.1683 106.501 83.7829 105.847C84.3975 105.193 84.1284 105.847 84.168 106.116C84.2076 106.385 84.5135 106.192 85.2442 106.04C85.9748 105.887 85.3602 105.462 85.1281 105.04C84.8986 104.618 85.5132 104.655 86.0882 103.811C86.6659 102.964 86.8189 103.196 87.9346 102.618C89.0504 102.041 88.9739 101.811 89.7414 101.542C90.5116 101.273 91.6247 102.043 92.5875 102.695C93.5476 103.349 93.0095 103.117 93.3946 103.233C93.7797 103.349 93.7797 103.426 94.3547 103.734C94.9297 104.043 95.0089 103.618 96.2011 103.389C96.362 103.357 96.8157 102.581 96.8157 102.581C96.8157 102.581 96.4702 102.389 96.5097 102.004C96.5493 101.619 96.8922 101.964 97.2008 102.043C97.5094 102.12 97.9314 101.505 98.24 101.313C98.5487 101.12 98.7412 100.698 99.4323 100.506C100.123 100.313 99.8543 100.622 100.316 100.967C100.777 101.313 100.508 102.927 100.355 103.352C100.202 103.774 100.047 103.66 99.3954 104.043C98.7412 104.428 98.8942 104.62 98.1662 105.195C97.4356 105.773 97.8972 105.581 97.9367 106.156C97.9763 106.733 98.2058 106.617 98.2058 106.617C98.2058 106.617 98.5144 106.963 98.7439 107.501C98.9733 108.039 98.7438 108.155 98.5909 108.424C98.4379 108.693 98.4379 109.078 98.8203 109.384C99.2054 109.693 99.667 110.231 99.667 110.231C99.667 110.231 100.013 110.191 100.282 109.809C100.551 109.424 100.358 109.424 100.474 109.387C100.59 109.35 101.244 108.849 101.59 108.347C101.935 107.846 101.782 107.962 101.666 107.577C101.55 107.192 101.782 107.232 102.191 106.731C102.6 106.229 103.051 106.615 103.629 106.578C104.206 106.538 103.937 106.309 104.13 105.807C104.323 105.306 103.708 105.346 103.515 105.037C103.323 104.729 103.054 104.46 103.093 104.19C103.133 103.921 103.17 103.499 103.246 103.172C103.323 102.845 103.246 102.152 103.476 101.959C103.705 101.766 103.821 101.497 103.977 101.112C104.133 100.727 104.861 101.228 105.438 101.458C106.016 101.687 106.322 101.766 106.591 101.88C106.86 101.996 106.475 102.302 106.667 102.945C106.86 103.589 107.783 102.65 107.783 102.65C107.783 102.65 108.63 102.803 109.397 102.919C110.168 103.035 109.743 102.766 110.743 102.228C111.742 101.69 110.972 101.883 112.051 101.806C113.127 101.73 112.935 101.384 113.665 100.883C114.396 100.382 114.974 100.268 116.356 100.421C117.74 100.574 117.817 101.421 118.471 102.112C119.125 102.803 121.317 102.305 122.393 102.497C123.469 102.69 124.778 102.035 128.046 101.228C131.314 100.421 131.623 98.9969 133.16 98.6514C134.698 98.3058 134.469 98.4984 135.814 98.8439C137.159 99.1894 137.043 98.9969 137.737 99.0365C138.428 99.076 142.081 98.2293 142.543 98.1133C143.004 97.9972 142.965 97.8838 143.313 97.3431C143.658 96.805 143.698 96.7285 143.89 96.7285C144.083 96.7285 143.967 97.074 143.967 97.074C143.967 97.074 144.236 96.9975 144.621 97.0345C145.006 97.074 144.89 97.38 145.006 97.6886C145.122 97.9972 144.853 98.7278 145.236 98.5722C145.621 98.4192 145.236 98.5722 146.388 98.1502C147.541 97.7282 146.581 97.8416 147.617 96.4199C148.657 94.9982 147.887 96.4594 149.079 96.6494C150.271 96.8419 149.809 96.4199 150.617 96.2643C151.424 96.1113 151.925 96.9949 152.848 97.2244C153.771 97.4538 153.618 97.3404 154.233 97.4934C154.847 97.6464 154.386 97.7625 154.771 97.9154C155.156 98.0684 155.425 97.9154 156.04 97.7625C156.654 97.6095 156.232 97.4934 156.425 97.1083C156.617 96.7232 156.617 97.0318 157.232 96.6467C157.846 96.2616 157.577 96.6863 157.846 96.7997C158.115 96.9158 158.424 97.2217 158.654 97.5699C158.883 97.9154 158.537 97.9154 158.192 98.0711C157.846 98.224 158.076 98.8017 158.076 98.8017C158.076 98.8017 158.115 99.3029 158.807 99.9544C159.498 100.609 159.115 99.7249 159.229 99.2712C159.345 98.8202 159.382 99.1472 159.843 99.2607C160.305 99.3767 160.65 98.4535 161.228 98.0684C161.806 97.6833 161.998 98.377 162.267 98.2214C162.536 98.0684 162.151 97.7203 162.497 97.4908C162.842 97.2613 162.689 96.7997 162.381 96.4146C162.072 96.0295 161.341 95.7605 161.112 95.6075C160.882 95.4545 161.265 94.4152 161.228 94.2992C161.188 94.1831 161.035 93.8771 161.228 93.645C161.42 93.4156 161.188 93.1069 161.188 92.7218C161.188 92.3367 160.843 92.4924 160.305 92.4924C159.767 92.4924 159.883 91.9912 159.535 91.8382C159.186 91.6852 158.996 91.6457 158.419 91.5692C157.841 91.4927 158.648 90.762 158.804 90.1844C158.957 89.6067 158.996 89.6067 159.495 89.3008C159.996 88.9922 159.648 88.6097 159.84 88.2615C160.033 87.916 160.11 87.8764 160.532 87.5705C160.954 87.2618 160.455 86.8794 159.993 87.0693C159.532 87.2618 159.455 86.9163 159.147 86.8002C158.838 86.6842 158.994 85.6476 159.186 85.0304C159.379 84.4158 158.957 84.7218 158.685 84.3762C158.416 84.0307 158.915 83.3765 158.878 83.031C158.838 82.6855 158.648 82.3769 158.3 81.9548C157.955 81.5328 158.224 81.2242 158.453 80.57C158.683 79.9159 158.224 79.7998 157.646 79.3409C157.068 78.8793 157.337 78.3412 157.3 77.9957C157.261 77.6501 157.224 77.6106 157.722 77.4945C158.224 77.3784 158.3 77.3784 158.683 77.6106C159.068 77.84 159.068 77.4945 159.682 77.4576C160.297 77.418 159.875 76.6874 159.875 76.3418C159.875 75.9963 160.26 75.5716 160.104 75.2657C159.951 74.9571 160.297 74.7276 160.526 74.4955C160.756 74.266 160.872 74.0734 161.217 74.1499C161.563 74.2264 161.447 74.419 161.872 74.841C162.294 75.263 162.911 75.5716 162.832 75.4186L162.876 75.4292ZM52.0964 65.0473C52.1545 65.3348 52.078 65.1818 51.9039 65.3559C51.7298 65.53 51.7694 65.4139 51.3473 65.53C50.9253 65.646 50.8462 65.5695 50.8462 65.5695C50.8462 65.5695 49.8649 65.7041 49.4245 65.8201C48.9813 65.9362 49.0024 66.0707 49.0024 66.0707C49.0024 66.0707 48.3483 66.2448 48.2138 66.3345C48.0792 66.4241 47.8102 66.4954 47.5227 66.6484C47.2352 66.8013 47.4277 66.8409 47.8867 67.3025C48.3483 67.7641 48.2903 67.4186 48.2903 67.4186C48.2903 67.4186 48.7914 67.379 48.8679 67.437C48.9444 67.495 49.2134 67.7245 49.2134 67.7245L49.4245 68.0331C49.4245 68.0331 49.5194 68.2072 49.4245 68.4367C49.3295 68.6662 49.0605 68.5528 48.9233 68.5897C48.7888 68.6293 48.3272 68.5132 47.9816 68.3602C47.6361 68.2072 47.52 68.2072 47.2695 68.2442C47.0189 68.2837 46.9055 68.4947 46.7683 68.5712C46.6338 68.6477 46.0772 68.6662 45.2121 68.4552C44.3469 68.2442 42.7696 68.3602 42.7696 68.3602C42.7696 68.3602 42.3265 68.4182 41.6934 68.4367C41.0604 68.4552 41.3663 68.4763 41.0788 68.5528C40.7913 68.6293 40.9047 68.3602 40.8493 68.2837C40.7913 68.2072 40.8493 68.1677 40.8493 68.1677C40.8493 68.1677 41.0023 68.0516 41.3874 67.8801C41.7725 67.7061 41.3109 67.5346 40.9074 67.284C40.5038 67.0335 40.5434 67.284 40.2717 67.2075C40.0027 67.131 39.8286 67.1495 39.483 67.0915C39.1375 67.0335 39.3485 67.226 39.2536 67.4186C39.1586 67.6111 39.33 67.6296 39.5806 67.9382C39.8312 68.2468 39.7151 68.1123 39.8101 68.2837C39.9051 68.4578 40.1372 68.4182 40.4247 68.7057C40.7122 68.9933 40.3482 68.7242 40.0396 68.9168C39.731 69.1093 39.9051 69.0908 39.7125 69.0513C39.52 69.0117 39.4435 69.0697 39.0584 69.0117C38.6733 68.9537 38.7128 69.0302 38.2328 69.0117C37.7527 68.9933 37.8477 68.9168 37.7131 68.8376C37.5786 68.7611 37.328 68.7427 37.1355 68.7216C36.9429 68.7031 36.9825 68.682 36.7715 68.5844C36.5605 68.4842 36.5974 68.4525 36.5605 68.3576C36.5209 68.2626 36.5605 68.107 36.1754 67.5689C35.7903 67.0308 35.8298 67.7615 35.6558 67.743C35.4817 67.7245 35.4447 67.7826 34.9647 67.8379C34.4846 67.8933 34.8882 67.9329 34.8302 68.107C34.7721 68.2811 34.4662 68.2995 34.118 68.376C33.7724 68.4525 33.8674 68.2811 33.7144 68.049C33.5614 67.8195 33.3293 68.0094 33.0998 67.9329C32.8704 67.8564 32.9258 67.9514 32.6382 68.107C32.3507 68.26 32.3112 68.2995 32.0421 68.4921C31.7731 68.6846 31.8891 68.5317 31.7731 68.4525C31.657 68.376 31.8126 68.2995 31.7915 68.2019C31.7731 68.107 32.1371 67.7404 32.4272 67.4898C32.7147 67.2392 32.7147 67.2972 33.0814 67.0862C33.4454 66.8752 33.2555 67.0097 33.5034 66.8752C33.754 66.7407 34.234 66.5297 34.5611 66.4136C34.8882 66.2975 35.4263 66.1446 35.7349 65.9124C36.0435 65.683 36.3125 65.3348 36.753 65.1818C37.1962 65.0288 37.7131 63.586 37.7131 63.586C37.7131 63.586 37.9242 63.2405 37.9242 63.0479C37.9242 62.8554 38.0007 62.7393 38.2697 62.6259C38.5387 62.5098 38.7128 62.6074 39.1929 62.4914C39.6729 62.3753 39.8075 62.5098 39.8075 62.5098C39.8075 62.5098 40.1345 62.6839 40.8256 62.8184C41.5167 62.953 41.0366 62.8184 41.1711 62.6259C41.3057 62.4333 41.4982 62.2988 41.8833 61.8952C42.2684 61.4917 42.2473 61.7423 42.8434 61.6658C43.4396 61.5893 43.0545 61.6262 43.305 61.7607C43.5556 61.8952 43.5556 61.9137 44.7663 62.3384C45.977 62.7604 45.3229 62.3384 45.3229 62.3384C45.3229 62.3384 45.6499 62.3964 45.708 62.5125C45.766 62.6285 45.9955 62.6655 46.188 62.7235C46.3806 62.7815 46.4571 62.953 46.9002 62.953C47.3433 62.953 47.3618 62.953 47.3803 62.8369C47.3987 62.7208 47.3987 62.6839 47.7258 62.7024C48.0529 62.7208 48.0529 62.6444 48.0529 62.6444C48.0529 62.6444 48.4564 62.4914 49.4614 63.0479C50.4663 63.6045 49.8043 63.375 50.5138 63.9526C51.226 64.5303 50.7064 64.0476 51.0915 64.5092C51.4766 64.9708 51.226 64.6622 52.0331 64.7598C52.8403 64.8574 52.0331 64.7598 52.0912 65.0473H52.0964Z" fill="#A3171D"/>
<path d="M93.9147 104.715L115.486 87.8719L101.994 115.044L93.9147 104.715Z" fill="white"/>
<path d="M98.234 65.7991L76.663 82.6422L68.5835 72.3133L98.234 65.7991Z" fill="white"/>
<path d="M63.7446 88.9459C63.2157 91.3787 63.4488 94.3114 64.3988 97.4146L72.5474 99.4108C73.1218 100.339 73.7715 101.246 74.4557 102.159C75.1744 103.079 75.9125 103.895 76.657 104.678L76.6094 113.086C79.3925 114.786 82.1803 115.703 84.6629 115.777L92.1201 102.485L113.691 85.6424C113.691 85.6424 133.995 71.5568 137.54 52.8929C118.554 51.8189 100.015 68.0909 100.015 68.0909L78.4442 84.934L63.7446 88.9459ZM106.448 81.6766C103.694 81.337 101.706 78.8232 102.046 76.0695C102.385 73.3158 104.899 71.3276 107.653 71.6672C110.406 72.0067 112.395 74.5206 112.055 77.2743C111.75 80.0345 109.236 82.0226 106.448 81.6766Z" fill="white"/>
<path d="M71.7357 97.5642C60.7204 106.979 35.2749 123.809 19.3506 123.065C3.50025 122.328 17.4381 94.2867 17.4381 94.2867C17.4381 94.2867 -0.88159 109.511 4.56476 127.826C12.2156 153.576 51.5589 128.375 78.5032 105.685C79.592 90.2781 75.2212 94.573 71.7357 97.5642Z" fill="white"/>
</svg>
