<svg width="28" height="28" viewBox="0 0 28 28" fill="none" xmlns="http://www.w3.org/2000/svg">
<circle cx="14" cy="14" r="14" fill="#2C3037"/>
<path d="M14.5913 20.3413H17.2501" stroke="white" stroke-width="0.421877" stroke-miterlimit="10" stroke-linecap="round"/>
<path d="M10.6152 20.3413H13.2739" stroke="white" stroke-width="0.421877" stroke-miterlimit="10" stroke-linecap="round"/>
<path d="M13.9324 21C14.2962 21 14.5911 20.7051 14.5911 20.3413C14.5911 19.9775 14.2962 19.6826 13.9324 19.6826C13.5686 19.6826 13.2737 19.9775 13.2737 20.3413C13.2737 20.7051 13.5686 21 13.9324 21Z" fill="white"/>
<path d="M13.9326 17.5027V19.6824" stroke="white" stroke-width="0.421877" stroke-miterlimit="10" stroke-linecap="round"/>
<path d="M18.4823 8H9.38297C8.67632 8 8.10327 8.57277 8.10327 9.27955C8.10327 9.98634 8.67618 10.5591 9.38297 10.5591H18.4822C19.1888 10.5591 19.7618 9.98634 19.7618 9.27955C19.7618 8.57277 19.1889 8 18.4823 8ZM9.38803 9.87482C9.04785 9.87482 8.77195 9.59891 8.77195 9.25874C8.77195 8.91857 9.04785 8.64266 9.38803 8.64266C9.72834 8.64266 10.0042 8.91857 10.0042 9.25874C10.0042 9.59891 9.72834 9.87482 9.38803 9.87482Z" fill="white"/>
<path d="M18.4823 11.5156H9.38297C8.67632 11.5156 8.10327 12.0884 8.10327 12.7952C8.10327 13.502 8.67618 14.0747 9.38297 14.0747H18.4822C19.1888 14.0747 19.7618 13.502 19.7618 12.7952C19.7618 12.0884 19.1889 11.5156 18.4823 11.5156ZM9.38803 13.3904C9.04785 13.3904 8.77195 13.1144 8.77195 12.7742C8.77195 12.4341 9.04785 12.1581 9.38803 12.1581C9.72834 12.1581 10.0042 12.4341 10.0042 12.7742C10.0041 13.1144 9.72834 13.3904 9.38803 13.3904Z" fill="white"/>
<path d="M18.4823 15.0313H9.38297C8.67632 15.0313 8.10327 15.6042 8.10327 16.311C8.10327 17.0178 8.67618 17.5907 9.38297 17.5907H18.4822C19.1888 17.5907 19.7618 17.0178 19.7618 16.311C19.7618 15.6042 19.1889 15.0313 18.4823 15.0313ZM9.38803 16.9061C9.04785 16.9061 8.77195 16.6301 8.77195 16.29C8.77195 15.9497 9.04785 15.6737 9.38803 15.6737C9.72834 15.6737 10.0042 15.9497 10.0042 16.29C10.0041 16.6301 9.72834 16.9061 9.38803 16.9061Z" fill="white"/>
</svg>
